# xmcd
#
# Track frame offsets: 
#        150
#        19690
#        36787
#        58207
#        77075
#        91250
#        104002
#        123455
#        140332
#        161522
#        175662
#        186377
#
# Disc length: 2757 seconds
#
# Revision: 4
# Processed by: cddbd v1.5.2PL0 Copyright (c) Steve Scherf et al.
# Submitted via: ExactAudioCopyFreeDBPlugin 1.0
#
DISCID=9e0ac30c
DTITLE=張學友 - Amour 遥远的她 dCS
DYEAR=1995
DGENRE=Pop
TTITLE0=Amour
TTITLE1=月半彎
TTITLE2=偷心者
TTITLE3=愛戀的星火
TTITLE4=苗
TTITLE5=恕難從命
TTITLE6=遙遠的她
TTITLE7=單車少女
TTITLE8=真面目·假面目
TTITLE9=征途
TTITLE10=霸王別姬
TTITLE11=楚歌
EXTD=
EXTT0=
EXTT1=
EXTT2=
EXTT3=
EXTT4=
EXTT5=
EXTT6=
EXTT7=
EXTT8=
EXTT9=
EXTT10=
EXTT11=
PLAYORDER=
